<svg width="23" height="24" viewBox="0 0 23 24" fill="none" xmlns="http://www.w3.org/2000/svg">
<g clip-path="url(#clip0_189_12901)">
<path d="M23 12C23 5.64877 17.8512 0.5 11.5 0.5C5.14877 0.5 0 5.64868 0 12C0 17.7399 4.20541 22.4976 9.70312 23.3603V15.3242H6.7832V12H9.70312V9.46641C9.70312 6.58422 11.42 4.99219 14.0468 4.99219C15.3051 4.99219 16.6211 5.2168 16.6211 5.2168V8.04688H15.171C13.7423 8.04688 13.2969 8.93336 13.2969 9.84285V12H16.4863L15.9765 15.3242H13.2969V23.3603C18.7946 22.4976 23 17.74 23 12Z" fill="#1877F2"/>
<path d="M15.9765 15.3242L16.4863 12H13.2969V9.84285C13.2969 8.93327 13.7424 8.04688 15.171 8.04688H16.6211V5.2168C16.6211 5.2168 15.3051 4.99219 14.0468 4.99219C11.42 4.99219 9.70312 6.58422 9.70312 9.46641V12H6.7832V15.3242H9.70312V23.3603C10.2975 23.4534 10.8983 23.5002 11.5 23.5C12.1017 23.5002 12.7025 23.4535 13.2969 23.3603V15.3242H15.9765Z" fill="white"/>
</g>
<defs>
<clipPath id="clip0_189_12901">
<rect width="23" height="23" fill="white" transform="translate(0 0.5)"/>
</clipPath>
</defs>
</svg>
